<svg xmlns="http://www.w3.org/2000/svg" viewBox="0 0 48 48" fill="none">
  <path d="M16 21.5c0-5.1 3.5-9 8-9s8 3.9 8 9c0 3.2-1.4 5.4-3.4 7.4-1.4 1.4-2 2.4-2.2 4h-4.8c-.2-1.6-.8-2.6-2.2-4-2-2-3.4-4.2-3.4-7.4Z" fill="#FFF4DF" stroke="#E99425" stroke-width="3.5" stroke-linejoin="round"/>
  <path d="M20 37h8m-6 4h4" stroke="#E99425" stroke-width="3.5" stroke-linecap="round"/>
  <path d="M24 6v3M10 20H7m34 0h-3M14.2 10.2l2.1 2.1m17.5-2.1-2.1 2.1" stroke="#E99425" stroke-width="3" stroke-linecap="round"/>
</svg>
